HIERARCHY
ROOT Spine
{
    OFFSET 0.0 0.0 -0.0
    CHANNELS 6 Xposition Yposition Zposition Zrotation Xrotation Yrotation
    JOINT ShoulderCenter
    {
        OFFSET 0.0 33.508056640625 0.0
        CHANNELS 3 Zrotation Xrotation Yrotation
        JOINT LeftShoulder
        {
            OFFSET 17.554550170898438 0.0 0.0
            CHANNELS 3 Zrotation Xrotation Yrotation
            JOINT LeftElbow
            {
                OFFSET 28.664031982421875 0.0 0.0
                CHANNELS 3 Zrotation Xrotation Yrotation
                JOINT LeftHand
                {
                    OFFSET 32.25125503540039 0.0 0.0
                    CHANNELS 3 Zrotation Xrotation Yrotation
                    End Site
                    {
                        OFFSET 12.900503158569336 0.0 0.0
                    }
                }
            }
        }
        JOINT RightShoulder
        {
            OFFSET -17.554550170898438 0.0 0.0
            CHANNELS 3 Zrotation Xrotation Yrotation
            JOINT RightElbow
            {
                OFFSET -28.664031982421875 0.0 0.0
                CHANNELS 3 Zrotation Xrotation Yrotation
                JOINT RightHand
                {
                    OFFSET -32.25125503540039 0.0 0.0
                    CHANNELS 3 Zrotation Xrotation Yrotation
                    End Site
                    {
                        OFFSET -12.900503158569336 0.0 0.0
                    }
                }
            }
        }
        End Site
        {
            OFFSET 0.0 13.40322208404541 0.0
        }
    }
    JOINT LeftHip
    {
        OFFSET 17.022781682257772 -17.022781682257772 0.0
        CHANNELS 3 Zrotation Xrotation Yrotation
        JOINT LeftKnee
        {
            OFFSET 0.0 -39.95870590209961 0.0
            CHANNELS 3 Zrotation Xrotation Yrotation
            JOINT LeftFoot
            {
                OFFSET 0.0 -44.482826232910156 0.0
                CHANNELS 3 Zrotation Xrotation Yrotation
                End Site
                {
                    OFFSET 0.0 0.0 17.793132781982422
                }
            }
        }
    }
    JOINT RightHip
    {
        OFFSET -17.022781682257772 -17.022781682257772 0.0
        CHANNELS 3 Zrotation Xrotation Yrotation
        JOINT RightKnee
        {
            OFFSET 0.0 -39.95870590209961 0.0
            CHANNELS 3 Zrotation Xrotation Yrotation
            JOINT RightFoot
            {
                OFFSET 0.0 -44.482826232910156 0.0
                CHANNELS 3 Zrotation Xrotation Yrotation
                End Site
                {
                    OFFSET 0.0 0.0 17.793132781982422
                }
            }
        }
    }
}
MOTION
Frames: 4
Frame Time: 0.03333333333333333
7.800000190734863 10.100000381469727 -189.0 -7.935549159897006 8.1977304200729 5.445549484518881 -4.5200445796798125e-07 -1.432773427830696e-06 -13.52800825745104 101.5244229142788 21.26811572215041 174.07124630589658 6.735312718005465e-06 1.045453043685153e-06 29.20207276330984 1.4908850069360234e-15 -3.1805546814635164e-15 -3.975693351829395e-16 -89.51649419813398 41.03158909060826 177.4021687821754 -4.084783748132488e-06 3.478153441128881e-06 -20.78773801264529 6.3611093629270335e-15 0.0 0.0 1.8901234777775004 -16.70820114227389 -4.887336124479175 -0.6297314365539214 14.790590294955543 -30.642116752961613 7.951386703658792e-16 3.9756933518293955e-16 -7.305336533986514e-15 5.519488704322985 -22.13292885704548 -11.570499316300678 -2.6019029141944046 25.14843931539334 52.83956259544694 7.951386703658792e-16 1.3914926731402886e-15 4.969616689786745e-16
7.599999904632568 10.0 -188.90000915527344 -7.741993140490085 8.008944707739625 4.984789711584318 5.184638754257631e-07 -4.54205937689698e-07 -12.701762261067598 101.66821063837456 21.840893000639895 173.9121516309588 3.4842441632227445e-06 2.00990429327411e-06 28.517449437237364 2.0872390097104334e-15 1.4483130040477084e-32 7.951386703658794e-16 -89.30762756254063 41.824249242924985 177.68991639792944 9.12609433930573e-07 1.1559000205977557e-06 -20.718623955892234 1.5902773407317584e-15 0.0 0.0 1.9932733542277914 -16.50224369569436 -5.014674743560894 -0.6775427862256185 15.199872415614951 -31.735103648662733 -7.95138670365879e-16 -1.0689929315590228e-32 1.5405811738338905e-15 5.923345124029839 -20.59758219610854 -7.242041844059237 -1.2750202455990156 22.896438867213305 47.45503375546498 3.975693351829396e-16 1.4483130040477084e-32 4.174478019420866e-15
7.400000095367432 10.100000381469727 -188.90000915527344 -7.571966869198406 7.675317062880192 4.211707954091845 -7.839527543308541e-07 -1.7923079039092329e-07 -12.427431553378838 101.82477756450308 24.371218769512918 173.59668248023962 1.07227583334089e-06 -1.8827148515432534e-06 27.448258322315862 -5.218097524276082e-15 -4.5259781376490885e-32 9.93923337957349e-16 -89.08124064025704 41.98465970807813 177.95129281644782 -2.473865919001816e-06 1.250886213951794e-06 -20.7422471663052 0.0 0.0 -3.180554681463516e-15 2.0910295470407214 -15.967484723875994 -5.270671820668168 -0.5669767277469429 15.183662504097809 -31.869644377063892 -7.951386703658794e-16 -1.6207312188152926e-32 2.3357198441997705e-15 6.422293054067408 -19.02030062966401 -3.9296404912313156 -0.07749363080861563 20.814115978412293 42.61167649419864 -3.975693351829396e-16 1.987846675914698e-16 1.0933156717530838e-15
7.199999809265137 10.100000381469727 -188.8000030517578 -7.040040729759568 7.156190539691541 4.029458909726494 -6.768782127952482e-07 4.975936532078245e-07 -12.419197915118552 101.72081984567046 25.54584200927867 173.26988952992036 5.94744942486755e-06 4.82768913669907e-07 26.72400060152193 -2.4848083448933725e-17 3.5561256795814267e-34 -1.6399735076296259e-15 -89.74619354273001 41.89057237422931 178.62248513647535 3.3231416655270843e-06 -2.258336956511452e-06 -20.515291211558587 7.951386703658792e-15 4.770832022195275e-15 3.1805546814635164e-15 1.6191296402614412 -15.550886908973727 -4.736529503707071 -0.1794980363442115 15.601828641575134 -33.45079165549439 0.0 0.0 1.888454342118963e-15 6.484425312973039 -17.053292186175195 -0.12781263832370712 0.9811647185222923 18.151942928163262 36.46742500856119 -7.951386703658791e-16 1.9878466759146972e-16 6.9077671988035744e-15
